<svg width="48" height="48" viewBox="0 0 48 48" fill="none" xmlns="http://www.w3.org/2000/svg">
<path d="M0 12C0 5.37258 5.37258 0 12 0H36C42.6274 0 48 5.37258 48 12V36C48 42.6274 42.6274 48 36 48H12C5.37258 48 0 42.6274 0 36V12Z" fill="#F9F9F9"/>
<path fill-rule="evenodd" clip-rule="evenodd" d="M28.5 22.5C28.5 25.8137 25.8137 28.5 22.5 28.5C19.1863 28.5 16.5 25.8137 16.5 22.5C16.5 19.1863 19.1863 16.5 22.5 16.5C25.8137 16.5 28.5 19.1863 28.5 22.5ZM27.2465 28.3072C25.9536 29.3652 24.301 30 22.5 30C18.3579 30 15 26.6421 15 22.5C15 18.3579 18.3579 15 22.5 15C26.6421 15 30 18.3579 30 22.5C30 24.301 29.3652 25.9536 28.3072 27.2465L32.7803 31.7197C33.0732 32.0126 33.0732 32.4874 32.7803 32.7803C32.4874 33.0732 32.0126 33.0732 31.7197 32.7803L27.2465 28.3072Z" fill="#3C3C3C"/>
</svg>
